# xmcd
#
# Track frame offsets:
# 150
# 15421
# 29599
# 44943
# 61741
# 79787
# 95405
# 107063
# 121532
# 134213
# 155711
# 172115
# 184871
# 199601
# 213896
#
# Disc length: 3034 seconds
#
#
# Revision: 0
# Processed by: cddbd v1.4PL0 Copyright (c) Steve Scherf et al.
# Submitted via: FreeRIP 2.51 
#
DISCID=d20bd80f
DTITLE=Jean Fraçois Michäel - Adieu jolie Candy
DYEAR=1900
DGENRE=
TTITLE0=Adieu jolie Candy
TTITLE1=Je veux vivre auprès de toi
TTITLE2=Comme j'ai toujours envie d'aimer
TTITLE3=L'amour
TTITLE4=Pars pas
TTITLE5=Si l'amour existe encore
TTITLE6=Toi
TTITLE7=Adios Querina Luna
TTITLE8=Chouans en avant
TTITLE9=La vie continue
TTITLE10=Rappelle-toi Candy
TTITLE11=Coupable
TTITLE12=Je pense à toi
TTITLE13=Elle et moi
TTITLE14=Du fond du coeur
EXTD=
EXTT0=
EXTT1=
EXTT2=
EXTT3=
EXTT4=
EXTT5=
EXTT6=
EXTT7=
EXTT8=
EXTT9=
EXTT10=
EXTT11=
EXTT12=
EXTT13=
EXTT14=
PLAYORDER=
